<?xml version="1.0" encoding="iso-8859-1"?>
<!-- Generator: Adobe Illustrator 19.0.0, SVG Export Plug-In . SVG Version: 6.00 Build 0)  -->
<svg version="1.1" id="Layer_1" xmlns="http://www.w3.org/2000/svg" xmlns:xlink="http://www.w3.org/1999/xlink" x="0px" y="0px"
	 viewBox="0 0 511.998 511.998" fill="white" width="150" height="150" style="enable-background:new 0 0 511.998 511.998;" xml:space="preserve">
<g>
	<g>
		<path d="M506,221.684c-5.248-5.44-13.056-7.723-20.395-5.888l-16.448,4.032h-0.021c-46.315,11.349-95.061,7.232-138.688-11.157
			c-0.533-10.304-2.112-20.587-4.949-30.763L292.005,58.271C290,51.081,284.368,45.492,277.2,43.465
			c-7.211-2.005-14.869-0.128-20.331,4.971L237.69,66.377C189.2,111.732,118.224,129.887,52.389,113.78l-25.984-6.357
			c-7.275-1.835-15.125,0.427-20.416,5.888c-5.269,5.44-7.232,13.269-5.205,20.587l33.515,119.637
			c18.091,64.619,79.211,107.392,145.749,107.392c2.048,0,4.139-0.299,6.229-0.384c13.397,50.453,53.525,90.176,107.008,103.893
			c12.928,3.307,25.899,4.885,38.699,4.885c66.496,0,127.616-42.773,145.728-107.392l33.493-119.659
			C513.253,234.975,511.269,227.145,506,221.684z M149.328,234.676h-21.333c-11.797,0-21.333-9.557-21.333-21.333
			s9.536-21.333,21.333-21.333h21.333c11.797,0,21.333,9.557,21.333,21.333S161.125,234.676,149.328,234.676z M213.328,213.343
			c-5.461,0-10.923-2.069-15.083-6.251c-8.32-8.32-8.32-21.824,0-30.165l21.333-21.333c8.341-8.32,21.845-8.32,30.165,0
			c8.341,8.341,8.341,21.845,0,30.165l-21.333,21.333C224.25,211.273,218.789,213.343,213.328,213.343z M436.624,350.409
			c-15.403,54.912-74.944,87.509-132.757,72.683c-36.907-9.472-64.981-35.989-75.413-69.888c0.64-0.213,1.216-0.512,1.856-0.747
			c4.971-1.685,9.835-3.584,14.528-5.739c0.448-0.192,0.917-0.363,1.365-0.555c5.44-2.56,10.688-5.44,15.744-8.576
			c0.448-0.277,0.853-0.597,1.301-0.875c4.352-2.773,8.533-5.781,12.544-8.981c1.067-0.832,2.069-1.707,3.093-2.56
			c3.264-2.752,6.421-5.632,9.429-8.64c1.173-1.173,2.347-2.347,3.477-3.563c2.709-2.88,5.248-5.909,7.701-9.024
			c1.109-1.365,2.261-2.709,3.307-4.117c3.115-4.224,6.037-8.619,8.704-13.205c0.491-0.853,0.896-1.728,1.365-2.581
			c2.325-4.181,4.416-8.427,6.293-12.757c0.555-1.323,1.045-2.688,1.579-4.032c1.664-4.181,3.115-8.405,4.352-12.672
			c0.171-0.597,0.427-1.152,0.597-1.749c42.987,15.701,89.536,20.011,134.805,12.309L436.624,350.409z"/>
	</g>
</g>
<g>
</g>
<g>
</g>
<g>
</g>
<g>
</g>
<g>
</g>
<g>
</g>
<g>
</g>
<g>
</g>
<g>
</g>
<g>
</g>
<g>
</g>
<g>
</g>
<g>
</g>
<g>
</g>
<g>
</g>
</svg>
